<svg xmlns="http://www.w3.org/2000/svg" fill="none" viewBox="0 0 24 24">
  <symbol id="heat" viewBox="0 0 24 24"><path d="M13 3c.7 3-1.2 4.8-2.8 6.5C8.3 11.6 7 13 7 15.5A5 5 0 0 0 17 15c0-2.7-1.5-4.2-2.3-5.2.1 2.2-.7 3.1-1.9 3.8"/><path d="M10.8 16.5c-.7.8-.7 2 .2 2.6a2 2 0 0 0 3-1.1"/></symbol>
  <symbol id="water" viewBox="0 0 24 24"><path d="M12 3C9.7 6.4 5.5 10.8 5.5 14.7a6.5 6.5 0 0 0 13 0C18.5 10.8 14.3 6.4 12 3Z"/><path d="M9 14a3 3 0 0 0 3 3"/></symbol>
  <symbol id="air" viewBox="0 0 24 24"><path d="M3 8h12a3 3 0 1 0-3-3M3 12h16a3 3 0 1 1-3 3M3 16h6a3 3 0 1 1-3 3"/></symbol>
  <symbol id="cool" viewBox="0 0 24 24"><path d="M12 3v18M4.2 7.5l15.6 9M4.2 16.5l15.6-9M9 4l3 3 3-3M9 20l3-3 3 3M4 11l4-1-1-4M17 18l-1-4 4-1M7 18l1-4-4-1M20 11l-4-1 1-4"/></symbol>
  <symbol id="shield" viewBox="0 0 24 24"><path d="m12 3 7 3v6c0 4-3.4 7.1-7 9-3.6-1.9-7-5-7-9V6l7-3Z"/><path d="m8.5 11.8 2.3 2.3 4.7-4.7"/></symbol>
  <symbol id="menu" viewBox="0 0 24 24"><path d="M5 7h14M5 12h14M5 17h14"/></symbol>
  <symbol id="close" viewBox="0 0 24 24"><path d="m7 7 10 10M17 7 7 17"/></symbol>
  <symbol id="previous" viewBox="0 0 24 24"><path d="m14 6-6 6 6 6"/></symbol>
  <symbol id="next" viewBox="0 0 24 24"><path d="m10 6 6 6-6 6"/></symbol>
  <symbol id="up" viewBox="0 0 24 24"><path d="m6 14 6-6 6 6"/></symbol>
  <symbol id="expand" viewBox="0 0 24 24"><path d="M9 5H5v4M15 5h4v4M5 15v4h4M19 15v4h-4"/></symbol>
  <symbol id="grid" viewBox="0 0 24 24"><rect x="4" y="4" width="6" height="6" rx="2"/><rect x="14" y="4" width="6" height="6" rx="2"/><rect x="4" y="14" width="6" height="6" rx="2"/><rect x="14" y="14" width="6" height="6" rx="2"/></symbol>
  <symbol id="document" viewBox="0 0 24 24"><path d="M14 3H7a2 2 0 0 0-2 2v14a2 2 0 0 0 2 2h10a2 2 0 0 0 2-2V8l-5-5Z"/><path d="M14 3v5h5M9 12h6M9 16h6"/></symbol>
  <symbol id="calendar" viewBox="0 0 24 24"><rect x="4" y="5" width="16" height="16" rx="4"/><path d="M8 3v4M16 3v4M4 11h16M8 15h2M14 15h2"/></symbol>
  <symbol id="settings" viewBox="0 0 24 24"><path d="M4 7h16M4 17h16"/><circle cx="9" cy="7" r="3"/><circle cx="15" cy="17" r="3"/></symbol>
  <symbol id="add" viewBox="0 0 24 24"><path d="M12 5v14M5 12h14"/></symbol>
  <symbol id="demo" viewBox="0 0 24 24"><circle cx="12" cy="12" r="8"/><path d="M10 8h1v8h-1M14 8h1v8h-1"/></symbol>
</svg>
